<mxfile host="app.diagrams.net" agent="Mozilla/5.0 (Macintosh; Intel Mac OS X 10_15_7) AppleWebKit/537.36 (KHTML, like Gecko) Chrome/128.0.0.0 Safari/537.36" version="24.7.13">
  <diagram name="第 1 页" id="2jk1ClkgVz1QAQAGMmZF">
    <mxGraphModel dx="2199" dy="761" grid="1" gridSize="10" guides="1" tooltips="1" connect="1" arrows="1" fold="1" page="1" pageScale="1" pageWidth="827" pageHeight="1169" math="0" shadow="0">
      <root>
        <mxCell id="0" />
        <mxCell id="1" parent="0" />
        <mxCell id="yLuFsmqHfieSo1lm8pae-1" value="&lt;div style=&quot;background-color:#ffffff;color:#080808&quot;&gt;&lt;pre style=&quot;font-family:&#39;JetBrains Mono&#39;,monospace;font-size:11.3pt;&quot;&gt;&lt;span style=&quot;color:#000000;&quot;&gt;AlarmPersonnelLocationRuleProvider&lt;/span&gt;&lt;/pre&gt;&lt;/div&gt;" style="shape=umlLifeline;perimeter=lifelinePerimeter;whiteSpace=wrap;html=1;container=1;dropTarget=0;collapsible=0;recursiveResize=0;outlineConnect=0;portConstraint=eastwest;newEdgeStyle={&quot;curved&quot;:0,&quot;rounded&quot;:0};" vertex="1" parent="1">
          <mxGeometry x="-40" y="60" width="320" height="610" as="geometry" />
        </mxCell>
        <mxCell id="yLuFsmqHfieSo1lm8pae-5" value="" style="html=1;points=[[0,0,0,0,5],[0,1,0,0,-5],[1,0,0,0,5],[1,1,0,0,-5]];perimeter=orthogonalPerimeter;outlineConnect=0;targetShapes=umlLifeline;portConstraint=eastwest;newEdgeStyle={&quot;curved&quot;:0,&quot;rounded&quot;:0};" vertex="1" parent="yLuFsmqHfieSo1lm8pae-1">
          <mxGeometry x="155" y="100" width="10" height="280" as="geometry" />
        </mxCell>
        <mxCell id="yLuFsmqHfieSo1lm8pae-2" value="&lt;div style=&quot;background-color:#ffffff;color:#080808&quot;&gt;&lt;pre style=&quot;font-family:&#39;JetBrains Mono&#39;,monospace;font-size:11.3pt;&quot;&gt;&lt;span style=&quot;color:#000000;&quot;&gt;AlarmPersonnelLocationRuleService&lt;/span&gt;&lt;/pre&gt;&lt;/div&gt;" style="shape=umlLifeline;perimeter=lifelinePerimeter;whiteSpace=wrap;html=1;container=1;dropTarget=0;collapsible=0;recursiveResize=0;outlineConnect=0;portConstraint=eastwest;newEdgeStyle={&quot;curved&quot;:0,&quot;rounded&quot;:0};" vertex="1" parent="1">
          <mxGeometry x="410" y="60" width="310" height="610" as="geometry" />
        </mxCell>
        <mxCell id="yLuFsmqHfieSo1lm8pae-6" value="" style="html=1;points=[[0,0,0,0,5],[0,1,0,0,-5],[1,0,0,0,5],[1,1,0,0,-5]];perimeter=orthogonalPerimeter;outlineConnect=0;targetShapes=umlLifeline;portConstraint=eastwest;newEdgeStyle={&quot;curved&quot;:0,&quot;rounded&quot;:0};" vertex="1" parent="yLuFsmqHfieSo1lm8pae-2">
          <mxGeometry x="150" y="130" width="10" height="160" as="geometry" />
        </mxCell>
        <mxCell id="yLuFsmqHfieSo1lm8pae-3" value="&lt;div style=&quot;background-color:#ffffff;color:#080808&quot;&gt;&lt;pre style=&quot;font-family:&#39;JetBrains Mono&#39;,monospace;font-size:11.3pt;&quot;&gt;&lt;span style=&quot;color:#067d17;&quot;&gt;iot_alarm_personnel_location_rule&lt;/span&gt;&lt;/pre&gt;&lt;/div&gt;" style="shape=umlLifeline;perimeter=lifelinePerimeter;whiteSpace=wrap;html=1;container=1;dropTarget=0;collapsible=0;recursiveResize=0;outlineConnect=0;portConstraint=eastwest;newEdgeStyle={&quot;curved&quot;:0,&quot;rounded&quot;:0};" vertex="1" parent="1">
          <mxGeometry x="1010" y="60" width="290" height="610" as="geometry" />
        </mxCell>
        <mxCell id="yLuFsmqHfieSo1lm8pae-12" value="" style="html=1;points=[[0,0,0,0,5],[0,1,0,0,-5],[1,0,0,0,5],[1,1,0,0,-5]];perimeter=orthogonalPerimeter;outlineConnect=0;targetShapes=umlLifeline;portConstraint=eastwest;newEdgeStyle={&quot;curved&quot;:0,&quot;rounded&quot;:0};" vertex="1" parent="yLuFsmqHfieSo1lm8pae-3">
          <mxGeometry x="140" y="170" width="10" height="80" as="geometry" />
        </mxCell>
        <mxCell id="yLuFsmqHfieSo1lm8pae-4" value="dispatch" style="html=1;verticalAlign=bottom;startArrow=oval;startFill=1;endArrow=block;startSize=8;curved=0;rounded=0;" edge="1" parent="1" target="yLuFsmqHfieSo1lm8pae-5">
          <mxGeometry width="60" relative="1" as="geometry">
            <mxPoint x="-180" y="170" as="sourcePoint" />
            <mxPoint x="-120" y="170" as="targetPoint" />
          </mxGeometry>
        </mxCell>
        <mxCell id="yLuFsmqHfieSo1lm8pae-7" value="dispatch" style="html=1;verticalAlign=bottom;endArrow=block;curved=0;rounded=0;" edge="1" parent="1" source="yLuFsmqHfieSo1lm8pae-5" target="yLuFsmqHfieSo1lm8pae-6">
          <mxGeometry width="80" relative="1" as="geometry">
            <mxPoint x="130" y="210" as="sourcePoint" />
            <mxPoint x="210" y="210" as="targetPoint" />
            <Array as="points">
              <mxPoint x="320" y="200" />
            </Array>
          </mxGeometry>
        </mxCell>
        <mxCell id="yLuFsmqHfieSo1lm8pae-8" value="&lt;div style=&quot;background-color:#ffffff;color:#080808&quot;&gt;&lt;pre style=&quot;font-family:&#39;JetBrains Mono&#39;,monospace;font-size:11.3pt;&quot;&gt;ElasticsearchClient&lt;/pre&gt;&lt;/div&gt;" style="shape=umlLifeline;perimeter=lifelinePerimeter;whiteSpace=wrap;html=1;container=1;dropTarget=0;collapsible=0;recursiveResize=0;outlineConnect=0;portConstraint=eastwest;newEdgeStyle={&quot;curved&quot;:0,&quot;rounded&quot;:0};" vertex="1" parent="1">
          <mxGeometry x="800" y="60" width="180" height="620" as="geometry" />
        </mxCell>
        <mxCell id="yLuFsmqHfieSo1lm8pae-9" value="" style="html=1;points=[[0,0,0,0,5],[0,1,0,0,-5],[1,0,0,0,5],[1,1,0,0,-5]];perimeter=orthogonalPerimeter;outlineConnect=0;targetShapes=umlLifeline;portConstraint=eastwest;newEdgeStyle={&quot;curved&quot;:0,&quot;rounded&quot;:0};" vertex="1" parent="yLuFsmqHfieSo1lm8pae-8">
          <mxGeometry x="85" y="160" width="10" height="110" as="geometry" />
        </mxCell>
        <mxCell id="yLuFsmqHfieSo1lm8pae-10" value="调用进行插入更新操作" style="html=1;verticalAlign=bottom;endArrow=block;curved=0;rounded=0;entryX=0;entryY=0;entryDx=0;entryDy=5;" edge="1" target="yLuFsmqHfieSo1lm8pae-9" parent="1" source="yLuFsmqHfieSo1lm8pae-6">
          <mxGeometry relative="1" as="geometry">
            <mxPoint x="815" y="225" as="sourcePoint" />
          </mxGeometry>
        </mxCell>
        <mxCell id="yLuFsmqHfieSo1lm8pae-11" value="return" style="html=1;verticalAlign=bottom;endArrow=open;dashed=1;endSize=8;curved=0;rounded=0;exitX=0;exitY=1;exitDx=0;exitDy=-5;" edge="1" source="yLuFsmqHfieSo1lm8pae-9" parent="1" target="yLuFsmqHfieSo1lm8pae-6">
          <mxGeometry relative="1" as="geometry">
            <mxPoint x="815" y="295" as="targetPoint" />
          </mxGeometry>
        </mxCell>
        <mxCell id="yLuFsmqHfieSo1lm8pae-13" value="插入ES" style="html=1;verticalAlign=bottom;endArrow=block;curved=0;rounded=0;entryX=0;entryY=0;entryDx=0;entryDy=5;entryPerimeter=0;" edge="1" target="yLuFsmqHfieSo1lm8pae-12" parent="1" source="yLuFsmqHfieSo1lm8pae-9">
          <mxGeometry relative="1" as="geometry">
            <mxPoint x="1230" y="235" as="sourcePoint" />
          </mxGeometry>
        </mxCell>
        <mxCell id="yLuFsmqHfieSo1lm8pae-14" value="return" style="html=1;verticalAlign=bottom;endArrow=open;dashed=1;endSize=8;curved=0;rounded=0;" edge="1" parent="1">
          <mxGeometry relative="1" as="geometry">
            <mxPoint x="895" y="300" as="targetPoint" />
            <mxPoint x="1150" y="300" as="sourcePoint" />
          </mxGeometry>
        </mxCell>
        <mxCell id="yLuFsmqHfieSo1lm8pae-15" value="return" style="html=1;verticalAlign=bottom;endArrow=open;dashed=1;endSize=8;curved=0;rounded=0;" edge="1" parent="1">
          <mxGeometry relative="1" as="geometry">
            <mxPoint x="560" y="340" as="sourcePoint" />
            <mxPoint x="125" y="340" as="targetPoint" />
          </mxGeometry>
        </mxCell>
      </root>
    </mxGraphModel>
  </diagram>
</mxfile>
